<svg width="308" height="236" viewBox="0 0 308 236" fill="none" xmlns="http://www.w3.org/2000/svg">
<path d="M1 71.3752C18.8178 71.3752 28.8075 71.3752 46.6254 71.3752C47.5594 66.9846 49.5006 60.7262 53.9426 54.5883C55.9269 51.8465 62.7664 43.1044 88.8074 34.3582C98.6729 31.0439 112.606 27.2905 129.913 25.5344L119.583 1H188.236L179.843 24.3851C179.843 24.3851 248.233 32.6752 259.231 68.0564C259.528 69.4466 259.821 70.8416 260.118 72.2317L306.604 70.94C307.4 74.9907 308.958 85.9365 302.73 95.475C297.758 103.089 289.533 107.191 287.45 108.172C281.566 110.94 278.759 110.389 274.537 113.768C271.821 115.941 269.376 119.058 266.789 125.82C262.864 136.081 262.618 144.23 261.624 161.545C260.69 177.82 260.793 172.517 260.333 182.206C259.873 191.86 259.386 205.131 259.257 221.159C247.583 224.349 238.006 225.455 231.71 225.895C197.224 228.309 179.481 216.563 149.067 226.325C144.44 227.81 144.582 228.167 140.028 229.768C120.439 236.655 90.9034 239.487 46.6254 222.881C46.1088 218.951 45.7559 214.471 45.7645 209.538C45.7731 203.533 46.3198 198.175 47.0558 193.612C47.8047 183.704 47.7961 170.688 45.0844 155.786C41.5592 136.435 34.8144 121.309 29.292 111.186C26.3049 110.329 14.4251 106.559 6.81511 94.3988C0.681479 84.6021 1.00027 72.6373 1.0043 71.3704C1.00834 70.1041 1 71.3752 1 71.3752Z" fill="#A03748" stroke="white" stroke-miterlimit="10"/>
<path d="M262.917 77.6161C263.153 79.5833 263.058 81.2103 262.917 82.3506C262.701 84.094 262.529 85.3636 261.625 86.6547C261.13 87.3652 260.166 88.7382 258.612 88.8071C256.847 88.8849 255.686 87.2103 255.599 87.0857C254.949 86.1169 255.117 85.4111 254.979 83.1596C254.786 80.026 254.575 76.7768 252.586 75.4637C252.332 75.2957 252.044 75.1498 251.725 75.0334L153.588 76.0366V76.3375L153.493 76.0924L55.3554 75.0892C55.0369 75.2055 54.7485 75.3522 54.4946 75.5195C52.506 76.8367 52.2951 80.0866 52.1014 83.2161C51.9636 85.4669 52.1315 86.1727 51.4816 87.1415C51.3955 87.2661 50.2333 88.9406 48.4685 88.8628C46.9147 88.794 45.9505 87.421 45.4555 86.7111C44.5517 85.4194 44.3795 84.1497 44.1643 82.4063C44.0223 81.2661 43.9275 79.6391 44.1643 77.6719C31.8239 77.5301 19.4879 77.3834 7.14746 77.2416C7.32394 80.0949 8.19343 88.1268 14.2668 94.8332C15.7431 96.4644 19.1521 100.227 24.3646 101.776C26.8223 102.508 30.3992 102.959 31.2515 103.067C34.0794 103.424 35.9604 103.459 36.4166 103.498C39.4124 103.747 43.7812 109.364 49.7598 133.197C53.087 146.911 54.3181 157.99 54.8174 165.694C55.6051 177.837 58.1403 189.897 57.938 202.065C57.9294 202.587 57.882 204.196 58.5449 206.112C59.311 208.328 60.6153 209.77 61.6483 210.89C62.4316 211.737 64.1275 213.425 66.9769 214.978C66.9769 214.978 70.3386 216.661 74.2943 217.561C77.1696 218.215 109.344 218.93 153.493 218.422L153.588 218V218.366C197.737 218.874 229.911 218.159 232.787 217.505C236.742 216.605 240.104 214.923 240.104 214.923C242.949 213.368 244.649 211.682 245.432 210.833C246.465 209.714 247.77 208.273 248.536 206.055C249.199 204.141 249.151 202.531 249.143 202.01C248.941 189.842 251.476 177.781 252.263 165.638C252.763 157.934 253.994 146.855 257.321 133.141C263.299 109.309 267.668 103.691 270.664 103.441C271.121 103.403 273.001 103.368 275.829 103.011C276.681 102.904 280.258 102.452 282.716 101.72C287.929 100.17 291.334 96.4086 292.814 94.7774C298.887 88.071 299.761 80.0391 299.934 77.1858C287.593 77.3276 275.257 77.4736 262.917 77.6161Z" fill="black"/>
<path d="M153.589 67.8499V68.0049C187.02 67.7638 220.447 67.5271 253.878 67.286C253.878 67.286 253.874 67.2731 253.861 67.2516C253.271 66.154 239.028 40.4833 189.744 35.004C189.744 35.004 155.31 30.889 153.589 31.6552V31.879L153.494 31.7111C151.772 30.945 117.338 35.0599 117.338 35.0599C66.9778 40.6555 53.2041 67.342 53.2041 67.342L153.494 68.0608L153.589 67.8499Z" fill="black"/>
<path d="M136.062 21.2286C136.247 21.6805 136.552 22.4337 136.922 23.3807C137.366 24.5127 137.469 24.8183 137.783 25.1024C138.029 25.3262 138.735 25.8384 140.366 25.5328L149.693 25.6232H149.723L155.005 25.6748V25.6232H155.099V25.6748L169.734 25.5328C171.366 25.8384 172.071 25.3262 172.316 25.1024C172.63 24.8183 172.734 24.5127 173.177 23.3807C173.548 22.4337 173.853 21.6805 174.039 21.2286C175.76 17.0663 177.482 12.9084 179.203 8.74611C179.406 8.31143 179.599 7.72603 179.634 7.0244C179.643 6.87375 179.643 6.7317 179.634 6.59399H155.099V6.66719H155.005V6.59399H130.47C130.462 6.7317 130.462 6.87375 130.47 7.0244C130.504 7.72603 130.699 8.31143 130.901 8.74611C132.622 12.9084 134.345 17.0663 136.066 21.2286H136.062Z" fill="black"/>
<path d="M182.856 75.8949C199.213 75.7524 215.569 75.6064 231.925 75.4646C231.624 122.954 231.318 170.447 231.017 217.936C215.569 218.078 200.121 218.224 184.673 218.366" fill="white"/>
<path d="M81.3225 75.7218C96.8182 75.5799 112.313 75.434 127.809 75.2914C127.521 122.983 127.237 170.674 126.948 218.366C112.313 218.508 97.6789 218.654 83.0446 218.796" fill="white"/>
<path d="M197.491 114.203C187.281 108.886 173.787 110.862 172.956 114.203C172.315 116.781 178.733 122.178 184.578 124.533C185.728 124.998 187.221 125.488 187.16 125.824C186.954 126.93 170.301 122.91 168.652 126.685C167.602 129.091 172.815 134.321 175.539 136.584C178.35 138.922 180.476 139.744 180.274 140.458C179.77 142.24 166.362 137.751 163.918 141.75C161.886 145.073 168.566 152.377 169.083 152.941C172.737 156.935 177.046 158.502 179.413 159.397C181.935 160.348 184.143 161.183 187.16 161.119C190.29 161.05 191.68 160.073 196.2 158.967C199.432 158.175 202.148 157.839 203.947 157.675C207.085 160.611 211.506 165.41 215.139 172.31C218.526 178.749 223.187 187.603 220.734 198.136C220.54 198.962 217.325 211.974 207.4 215.857C202.423 217.802 196.634 217.113 196.634 217.673C196.634 218.108 199.962 218.435 201.257 218.559C205.32 218.955 208.123 218.874 216.977 218.559C237.943 217.811 220.317 218.336 226.222 218.116C227.737 218.06 229.252 218.013 231.305 217.673C231.305 217.673 233.802 217.259 236.522 216.304C237.775 215.861 238.773 215.322 238.773 215.322C239.565 215.03 240.176 214.746 240.547 214.565C240.547 214.565 246.986 211.406 249 205.642C249.069 205.445 249.13 205.25 249.13 205.25C249.216 204.928 249.336 204.45 249.461 203.869C249.904 201.85 251.028 195.868 249.138 186.523C248.639 184.06 247.214 177.802 243.543 170.597C235.282 154.374 220.575 142.98 214.704 138.745C214.252 137.084 213.568 134.854 212.552 132.289C211.463 129.552 210.275 127.137 209.539 125.832C207.218 121.726 202.811 116.983 197.487 114.211L197.491 114.203Z" fill="white"/>
<path d="M86.8705 202.009C83.8967 193.564 87.1893 185.748 90.314 178.336C92.3073 173.605 96.1811 166.099 103.657 158.536C113.088 162.505 119.919 161.042 122.596 160.258C136.646 156.156 146.859 138.552 145.357 116.931C128.067 106.89 108.633 108.917 98.9228 119.798C92.2729 127.248 91.9286 136.89 92.036 140.889C85.6566 144.207 74.487 151.202 66.2102 164.132C63.9849 167.606 58.144 176.468 57.6017 186.084C57.4725 188.369 57.55 192.35 57.6017 195.123C57.7566 203.163 58.1914 204.669 58.4625 205.453C60.1541 210.377 64.1958 213.123 66.2102 214.492C69.3092 216.597 73.6009 218.499 89.0229 219.226C98.8623 219.691 109.158 219.485 109.253 218.366C109.335 217.397 100.804 217.966 93.7574 211.909C91.877 210.291 88.6181 206.972 86.8705 202.009Z" fill="white"/>
<path d="M291.324 77.186C289.547 82.5835 287.029 86.4621 285.191 88.8596C283.069 91.631 279.015 96.7965 271.955 99.5685C270.909 99.9775 270.01 100.253 269.373 100.429C268.925 100.701 268.305 101.118 267.651 101.72C266.442 102.84 265.546 104.196 264.638 106.455C263.269 109.855 262.723 113.187 262.486 115.494C263.084 113.342 264.108 110.6 265.929 107.746C266.781 106.412 267.664 105.267 268.512 104.303C269.084 104.014 269.661 103.731 270.234 103.442C274.099 103.433 277.275 102.913 279.548 102.401C282.961 101.63 285.656 100.959 288.527 98.9227C290.352 97.6317 291.609 96.2367 292.397 95.2383C293.688 93.7875 295.061 91.8596 296.408 89.522C298.375 86.113 300.256 81.5982 299.933 77.186H291.324Z" fill="white"/>
<path d="M179.629 6.59399C179.629 6.59399 179.581 8.17799 178.958 9.32291L172.604 24.728C172.604 24.728 172.333 25.7007 170.383 25.6146L162.158 25.606C163.819 23.8585 165.485 22.1152 167.146 20.3677C168.39 19.4423 170.289 17.7937 171.881 15.2025C173.685 12.2671 174.258 9.49078 174.464 7.88529C174.399 7.45488 174.335 7.0244 174.275 6.59399H179.629Z" fill="white"/>
<path d="M216.529 40.7759C215.264 40.2895 208.046 37.6424 202.226 41.4603C201.68 41.8218 197.457 44.5895 197.922 47.4863C198.542 51.3429 206.866 51.6485 206.961 53.9427C207.107 57.4378 187.94 60.8381 188.022 61.26C188.121 61.7851 217.902 56.2842 218.152 57.3861C218.234 57.7477 215.053 58.5052 207.822 61.26C200.143 64.1826 192.421 67.6346 192.464 67.725C192.464 67.725 192.469 67.725 192.473 67.725C212.94 67.5787 233.411 67.4323 253.878 67.286C252.728 65.4394 250.546 62.1682 247.852 59.5382C245.962 57.696 243.978 56.0948 243.978 56.0948C243.388 55.6214 242.876 55.2297 241.826 54.3731C240.414 53.2239 239.411 52.3673 239.243 52.221C237.987 51.1535 234.935 48.9971 229.343 46.195C226.167 44.6024 221.867 42.6483 216.529 40.7759Z" fill="white"/>
<path d="M83.4273 199.428C80.5912 188.895 85.2264 179.783 88.5927 173.171C93.1296 164.261 99.155 158.429 103.227 155.093C110.928 158.933 116.691 158.201 119.153 157.676C131.816 154.977 141.987 139.671 141.965 119.799C126.272 110.949 108.857 113.281 100.644 123.242C94.8599 130.262 95.1739 139.211 95.4796 142.611C89.1353 145.697 78.31 152.098 69.6536 164.133C66.8517 168.028 61.975 175.719 59.5431 185.624C58.2561 190.875 57.817 194.693 58.0323 199.858C58.1829 203.542 58.2604 205.385 58.8931 206.745C60.5158 210.244 64.295 213.158 64.9191 213.632C64.9707 213.67 65.0095 213.7 65.0397 213.722C65.5002 214.066 66.701 214.927 68.3625 215.784C70.4585 216.864 72.1888 217.372 72.6667 217.505C72.77 217.536 73.1314 217.635 73.5962 217.742C76.7298 218.47 80.3199 218.595 83.4273 218.797C85.2609 218.917 86.5657 219.038 88.5927 219.227C88.5927 219.227 93.8525 219.718 96.3403 219.658C96.9558 219.64 97.5583 219.606 97.5583 219.606C98.6132 219.537 99.1943 219.417 102.797 219.227C106.998 219.008 108.802 219.038 108.823 218.797C108.861 218.327 102.707 218.642 97.2009 216.214C87.1165 211.768 83.5994 200.064 83.4273 199.428Z" fill="#E14D61"/>
<path d="M248.838 192.501C245.02 164.244 221.893 146.562 212.987 140.458C211.838 137.158 210.693 133.86 209.544 130.558C209.544 130.558 209.544 130.563 209.544 130.567C209.109 129.061 208.713 128.153 208.713 128.153C208.209 126.995 205.863 121.847 200.487 118.154C190.738 111.461 176.917 113.221 176.276 116.066C175.458 119.673 195.611 126.216 194.827 128.592C194.027 131.024 172.458 124.791 171.145 128.14C169.858 131.428 189.249 141.018 188.022 143.902C186.942 146.446 169.552 139.099 167.357 142.947C165.885 145.525 171.76 151.947 176.831 155.093C178.536 156.152 182.805 158.717 188.022 158.107C188.965 157.994 189.61 157.818 190.174 157.676C193.235 156.893 197.9 155.984 204.809 155.524C208.463 158.545 214.27 164.098 218.708 172.702C222.103 179.296 226.722 188.391 223.872 198.958C223.705 199.574 220.18 211.251 210.099 215.745C205.028 218.005 199.605 217.867 199.644 218.366C199.653 218.491 200.018 218.779 207.822 218.796C214.528 218.809 219.968 218.607 224.608 218.366C227.695 218.207 231.069 217.996 231.065 217.936C231.065 217.867 226.43 218.013 226.43 217.991C226.43 217.983 226.868 217.966 227.621 217.936C229.034 217.88 230.445 217.837 232.357 217.505C232.357 217.505 234.68 217.105 237.216 216.175C238.382 215.749 239.312 215.224 239.312 215.224C240.048 214.94 240.616 214.669 240.965 214.488C240.965 214.488 246.961 211.423 248.838 205.841C248.902 205.651 248.958 205.458 248.958 205.458C249.061 205.114 249.178 204.661 249.268 204.119C249.488 200.396 249.379 196.514 248.838 192.497V192.501Z" fill="#E14D61"/>
<path d="M223.317 75.4646C208.825 75.6064 194.336 75.7524 179.844 75.8949L223.317 75.4646Z" fill="white"/>
<path d="M148.853 187.805C158.123 187.805 165.639 180.29 165.639 171.019C165.639 161.747 158.123 154.232 148.853 154.232C139.581 154.232 132.066 161.747 132.066 171.019C132.066 180.29 139.581 187.805 148.853 187.805Z" fill="#E14D61"/>
<path d="M115.619 204.125C122.632 204.125 128.317 198.441 128.317 191.428C128.317 184.415 122.632 178.731 115.619 178.731C108.607 178.731 102.922 184.415 102.922 191.428C102.922 198.441 108.607 204.125 115.619 204.125Z" fill="#E14D61"/>
<path d="M171.233 208.896C175.513 208.896 178.982 205.428 178.982 201.149C178.982 196.87 175.513 193.401 171.233 193.401C166.955 193.401 163.486 196.87 163.486 201.149C163.486 205.428 166.955 208.896 171.233 208.896Z" fill="#E14D61"/>
<path d="M207.605 202.871C209.625 202.871 211.263 201.233 211.263 199.212C211.263 197.191 209.625 195.553 207.605 195.553C205.584 195.553 203.946 197.191 203.946 199.212C203.946 201.233 205.584 202.871 207.605 202.871Z" fill="#E14D61"/>
<path d="M188.237 185.223C191.446 185.223 194.048 182.621 194.048 179.412C194.048 176.203 191.446 173.602 188.237 173.602C185.028 173.602 182.426 176.203 182.426 179.412C182.426 182.621 185.028 185.223 188.237 185.223Z" fill="#E14D61"/>
<path d="M120.68 196.044L115.95 186.476C115.416 185.396 116.531 184.224 117.628 184.719C121.166 186.325 126.099 189.807 123.005 196.036C122.527 196.996 121.158 197.004 120.684 196.044H120.68Z" fill="white"/>
<path d="M157.417 174.85L150.513 160.891C149.734 159.311 151.356 157.603 152.962 158.33C158.127 160.676 165.315 165.755 160.804 174.837C160.107 176.24 158.11 176.253 157.417 174.85Z" fill="white"/>
<path d="M174.307 203.189L171.187 196.879C170.834 196.165 171.57 195.394 172.293 195.721C174.626 196.78 177.88 199.078 175.84 203.185C175.526 203.818 174.621 203.826 174.307 203.189Z" fill="white"/>
<path d="M190.62 181.47L188.309 176.796C188.046 176.266 188.592 175.693 189.127 175.939C190.857 176.722 193.263 178.423 191.752 181.466C191.519 181.935 190.852 181.939 190.62 181.466V181.47Z" fill="white"/>
<path d="M208.965 200.503L207.445 197.434C207.273 197.086 207.63 196.711 207.984 196.87C209.12 197.387 210.699 198.501 209.709 200.503C209.554 200.813 209.116 200.813 208.965 200.503Z" fill="white"/>
</svg>
