<svg width="45" height="35" viewBox="0 0 45 35" fill="none" xmlns="http://www.w3.org/2000/svg">
<g clip-path="url(#clip0_1485_343)">
<path d="M0.19751 10.4084C2.78526 10.4084 4.2361 10.4084 6.82385 10.4084C6.9595 9.77074 7.24143 8.86181 7.88656 7.97038C8.17474 7.57218 9.16807 6.30254 12.9501 5.03229C14.3829 4.55094 16.4064 4.00583 18.92 3.75078L17.4197 0.187561H27.3905L26.1715 3.58387C26.1715 3.58387 36.1041 4.78786 37.7013 9.9264C37.7445 10.1283 37.787 10.3309 37.8301 10.5328L44.5815 10.3452C44.6971 10.9335 44.9234 12.5232 44.0188 13.9085C43.2968 15.0143 42.1022 15.61 41.7997 15.7526C40.9451 16.1545 40.5375 16.0745 39.9243 16.5652C39.5298 16.8809 39.1747 17.3335 38.799 18.3156C38.2289 19.8059 38.1933 20.9893 38.0489 23.5041C37.9132 25.8677 37.9282 25.0976 37.8614 26.5047C37.7945 27.9069 37.7238 29.8342 37.7051 32.1621C36.0097 32.6254 34.6188 32.786 33.7043 32.8498C28.6958 33.2005 26.119 31.4945 21.7018 32.9123C21.0298 33.128 21.0505 33.1798 20.3891 33.4124C17.5441 34.4126 13.2545 34.8239 6.82385 32.4122C6.74883 31.8414 6.69757 31.1907 6.69882 30.4743C6.70007 29.6022 6.77946 28.824 6.88636 28.1613C6.99513 26.7223 6.99388 24.8319 6.60005 22.6677C6.08807 19.8572 5.1085 17.6605 4.30646 16.1902C3.87263 16.0658 2.14728 15.5182 1.04206 13.7522C0.15125 12.3294 0.197549 10.5917 0.198135 10.4077C0.198721 10.2238 0.19751 10.4084 0.19751 10.4084Z" fill="#A03748" stroke="white" stroke-miterlimit="10"/>
<path d="M38.2366 11.3148C38.271 11.6005 38.2572 11.8368 38.2366 12.0024C38.2053 12.2556 38.1803 12.44 38.049 12.6275C37.9771 12.7307 37.8371 12.9301 37.6114 12.9401C37.3551 12.9514 37.1864 12.7082 37.1739 12.6901C37.0795 12.5494 37.1038 12.4469 37.0838 12.1199C37.0557 11.6648 37.0251 11.1929 36.7363 11.0022C36.6994 10.9778 36.6575 10.9566 36.6112 10.9397L22.3584 11.0854V11.1291L22.3446 11.0935L8.09174 10.9478C8.04548 10.9647 8.0036 10.986 7.96672 11.0103C7.67791 11.2016 7.64728 11.6736 7.61915 12.1281C7.59914 12.455 7.62352 12.5575 7.52913 12.6982C7.51663 12.7163 7.34784 12.9595 7.09154 12.9482C6.86587 12.9382 6.72584 12.7388 6.65395 12.6357C6.52268 12.4481 6.49767 12.2637 6.46642 12.0105C6.44579 11.8449 6.43203 11.6086 6.46642 11.3229C4.67418 11.3023 2.88257 11.281 1.09033 11.2604C1.11596 11.6748 1.24224 12.8413 2.12429 13.8153C2.33871 14.0522 2.83381 14.5986 3.59084 14.8236C3.94778 14.9299 4.46726 14.9955 4.59104 15.0111C5.00175 15.063 5.27493 15.068 5.34119 15.0737C5.77628 15.1099 6.41078 15.9257 7.27908 19.387C7.7623 21.3787 7.94109 22.9878 8.0136 24.1067C8.128 25.8702 8.4962 27.6218 8.46682 29.389C8.46557 29.4647 8.45869 29.6985 8.55496 29.9767C8.66623 30.2986 8.85565 30.508 9.00568 30.6706C9.11945 30.7937 9.36575 31.0388 9.77958 31.2644C9.77958 31.2644 10.2678 31.5088 10.8423 31.6395C11.2599 31.7345 15.9327 31.8383 22.3446 31.7645L22.3584 31.7033V31.7564C28.7703 31.8302 33.4431 31.7264 33.8607 31.6314C34.4352 31.5007 34.9234 31.2563 34.9234 31.2563C35.3366 31.0306 35.5835 30.7856 35.6973 30.6624C35.8473 30.4999 36.0368 30.2905 36.148 29.9685C36.2443 29.6904 36.2374 29.4566 36.2362 29.3809C36.2068 27.6137 36.575 25.8621 36.6894 24.0986C36.7619 22.9796 36.9407 21.3706 37.4239 19.3789C38.2922 15.9176 38.9267 15.1018 39.3618 15.0655C39.4281 15.0599 39.7012 15.0549 40.1119 15.003C40.2357 14.9874 40.7552 14.9218 41.1121 14.8155C41.8692 14.5904 42.3637 14.0441 42.5787 13.8072C43.4607 12.8332 43.5876 11.6667 43.6127 11.2523C41.8204 11.2729 40.0288 11.2941 38.2366 11.3148Z" fill="black"/>
<path d="M22.3585 9.89641V9.91892C27.2138 9.88391 32.0686 9.84953 36.9239 9.81452C36.9239 9.81452 36.9233 9.81264 36.9214 9.80952C36.8358 9.65011 34.7672 5.92186 27.6095 5.12608C27.6095 5.12608 22.6085 4.52845 22.3585 4.63973V4.67223L22.3447 4.64785C22.0947 4.53658 17.0937 5.1342 17.0937 5.1342C9.7797 5.94687 7.7793 9.82265 7.7793 9.82265L22.3447 9.92704L22.3585 9.89641Z" fill="black"/>
<path d="M19.813 3.12543C19.8399 3.19107 19.8842 3.30046 19.938 3.43799C20.0024 3.6024 20.0174 3.64678 20.063 3.68804C20.0987 3.72055 20.2012 3.79494 20.4381 3.75055L21.7927 3.76368H21.7971L22.5642 3.77118V3.76368H22.5779V3.77118L24.7033 3.75055C24.9403 3.79494 25.0428 3.72055 25.0784 3.68804C25.124 3.64678 25.1391 3.6024 25.2034 3.43799C25.2572 3.30046 25.3016 3.19107 25.3285 3.12543C25.5785 2.52093 25.8286 1.91706 26.0786 1.31256C26.108 1.24943 26.1361 1.16441 26.1411 1.06251C26.1424 1.04063 26.1424 1.02 26.1411 1H22.5779V1.01063H22.5642V1H19.0009C18.9997 1.02 18.9997 1.04063 19.0009 1.06251C19.0059 1.16441 19.0341 1.24943 19.0635 1.31256C19.3135 1.91706 19.5636 2.52093 19.8136 3.12543H19.813Z" fill="black"/>
<path d="M26.6091 11.0648C28.9846 11.0441 31.3601 11.0229 33.7356 11.0023C33.6918 17.8993 33.6474 24.7969 33.6037 31.6939C31.3601 31.7146 29.1165 31.7358 26.8729 31.7564" fill="white"/>
<path d="M11.863 11.0397C14.1135 11.0191 16.3639 10.9979 18.6144 10.9772C18.5725 17.9036 18.5313 24.83 18.4894 31.7564C16.3639 31.7771 14.2385 31.7983 12.1131 31.8189" fill="white"/>
<path d="M28.7346 16.6284C27.2518 15.8563 25.2921 16.1433 25.1714 16.6284C25.0783 17.0028 26.0103 17.7867 26.8593 18.1287C27.0262 18.1962 27.2431 18.2674 27.2343 18.3162C27.2043 18.4768 24.7857 17.893 24.5463 18.4412C24.3938 18.7907 25.1508 19.5502 25.5465 19.879C25.9547 20.2185 26.2635 20.3378 26.2341 20.4416C26.161 20.7004 24.2137 20.0484 23.8587 20.6292C23.5636 21.1118 24.5338 22.1726 24.6088 22.2545C25.1395 22.8346 25.7653 23.0621 26.1091 23.1922C26.4754 23.3303 26.7961 23.4516 27.2343 23.4422C27.6888 23.4322 27.8907 23.2903 28.5471 23.1297C29.0166 23.0146 29.411 22.9659 29.6723 22.9421C30.128 23.3685 30.7701 24.0655 31.2977 25.0676C31.7896 26.0027 32.4666 27.2886 32.1103 28.8183C32.0822 28.9383 31.6152 30.8281 30.1737 31.392C29.451 31.6745 28.6102 31.5745 28.6102 31.6558C28.6102 31.7189 29.0935 31.7664 29.2816 31.7845C29.8717 31.842 30.2787 31.8302 31.5646 31.7845C34.6096 31.6758 32.0497 31.752 32.9074 31.7201C33.1274 31.712 33.3474 31.7051 33.6456 31.6558C33.6456 31.6558 34.0082 31.5957 34.4033 31.457C34.5852 31.3926 34.7302 31.3144 34.7302 31.3144C34.8452 31.2719 34.934 31.2307 34.9878 31.2044C34.9878 31.2044 35.923 30.7456 36.2155 29.9085C36.2255 29.8798 36.2343 29.8516 36.2343 29.8516C36.2468 29.8048 36.2643 29.7354 36.2824 29.651C36.3468 29.3578 36.51 28.4889 36.2355 27.1317C36.163 26.7741 35.9561 25.8652 35.4229 24.8188C34.2232 22.4627 32.0872 20.8079 31.2345 20.1928C31.1689 19.9515 31.0695 19.6277 30.922 19.2551C30.7638 18.8576 30.5913 18.5069 30.4844 18.3174C30.1474 17.7211 29.5073 17.0322 28.734 16.6296L28.7346 16.6284Z" fill="white"/>
<path d="M12.6688 29.3809C12.2369 28.1544 12.7151 27.0192 13.1689 25.9427C13.4584 25.2557 14.021 24.1655 15.1068 23.0671C16.4765 23.6435 17.4686 23.431 17.8574 23.3172C19.8978 22.7214 21.3812 20.1647 21.163 17.0247C18.6519 15.5663 15.8295 15.8607 14.4192 17.441C13.4534 18.5231 13.4034 19.9234 13.419 20.5041C12.4925 20.9861 10.8703 22.0019 9.66823 23.8798C9.34504 24.3843 8.49674 25.6714 8.41798 27.068C8.39922 27.3999 8.41048 27.9781 8.41798 28.3807C8.44048 29.5485 8.50362 29.7672 8.543 29.881C8.78868 30.5962 9.37567 30.995 9.66823 31.1938C10.1183 31.4995 10.7416 31.7758 12.9814 31.8814C14.4104 31.9489 15.9057 31.9189 15.9195 31.7564C15.9314 31.6157 14.6924 31.6983 13.669 30.8187C13.3959 30.5837 12.9226 30.1017 12.6688 29.3809Z" fill="white"/>
<path d="M42.3624 11.2523C42.1042 12.0362 41.7385 12.5995 41.4716 12.9477C41.1634 13.3502 40.5746 14.1004 39.5493 14.503C39.3974 14.5624 39.2668 14.6024 39.1743 14.628C39.1093 14.6674 39.0192 14.728 38.9242 14.8155C38.7486 14.9781 38.6185 15.175 38.4866 15.5032C38.2878 15.997 38.2085 16.4809 38.1741 16.8159C38.261 16.5034 38.4097 16.1052 38.6742 15.6907C38.7979 15.4969 38.9261 15.3306 39.0492 15.1906C39.1324 15.1487 39.2162 15.1075 39.2993 15.0656C39.8607 15.0643 40.322 14.9887 40.6521 14.9143C41.1478 14.8024 41.5391 14.7049 41.9561 14.4092C42.2211 14.2217 42.4037 14.0191 42.5181 13.8741C42.7056 13.6634 42.905 13.3834 43.1007 13.0439C43.3864 12.5488 43.6596 11.8931 43.6127 11.2523H42.3624Z" fill="white"/>
<path d="M26.1404 1C26.1404 1 26.1335 1.23005 26.0429 1.39633L25.1202 3.63366C25.1202 3.63366 25.0808 3.77493 24.7976 3.76243L23.603 3.76118C23.8443 3.50738 24.0862 3.2542 24.3275 3.0004C24.5082 2.866 24.7839 2.62658 25.0152 2.25025C25.2771 1.82392 25.3603 1.42071 25.3903 1.18754C25.3809 1.12503 25.3715 1.06251 25.3628 1H26.1404Z" fill="white"/>
<path d="M31.4996 5.96436C31.3158 5.89372 30.2675 5.50927 29.4223 6.06375C29.3429 6.11626 28.7297 6.51822 28.7972 6.93893C28.8872 7.49904 30.0962 7.54343 30.11 7.87662C30.1312 8.38422 27.3475 8.87807 27.3594 8.93933C27.3738 9.0156 31.699 8.21669 31.7353 8.37672C31.7472 8.42923 31.2852 8.53925 30.235 8.93933C29.1198 9.36379 27.9983 9.86515 28.0045 9.87827C28.0045 9.87827 28.0052 9.87827 28.0058 9.87827C30.9783 9.85702 33.9514 9.83576 36.9238 9.81451C36.7569 9.54633 36.44 9.07124 36.0487 8.68928C35.7742 8.42173 35.4861 8.18918 35.4861 8.18918C35.4004 8.12042 35.326 8.06353 35.1735 7.93913C34.9684 7.77222 34.8228 7.64782 34.7984 7.62657C34.6159 7.47154 34.1727 7.15835 33.3606 6.75139C32.8993 6.5201 32.2748 6.23629 31.4996 5.96436Z" fill="white"/>
<path d="M12.1687 29.0059C11.7568 27.4762 12.43 26.1528 12.9189 25.1926C13.5778 23.8986 14.4529 23.0516 15.0443 22.5671C16.1627 23.1247 16.9997 23.0184 17.3573 22.9422C19.1964 22.5502 20.6736 20.3273 20.6704 17.4411C18.3912 16.1558 15.862 16.4946 14.6692 17.9412C13.8291 18.9607 13.8747 20.2604 13.9191 20.7542C12.9977 21.2024 11.4255 22.132 10.1683 23.8799C9.76137 24.4456 9.05311 25.5627 8.69991 27.0011C8.513 27.7638 8.44923 28.3183 8.48049 29.0684C8.50237 29.6035 8.51362 29.8711 8.60552 30.0686C8.84119 30.5768 9.39005 31 9.48069 31.0688C9.48819 31.0744 9.49382 31.0788 9.4982 31.0819C9.56508 31.1319 9.73949 31.257 9.98079 31.3814C10.2852 31.5383 10.5365 31.612 10.6059 31.6314C10.6209 31.6358 10.6734 31.6502 10.7409 31.6658C11.196 31.7715 11.7174 31.7896 12.1687 31.819C12.435 31.8365 12.6245 31.854 12.9189 31.8815C12.9189 31.8815 13.6828 31.9527 14.0441 31.944C14.1335 31.9415 14.221 31.9365 14.221 31.9365C14.3742 31.9265 14.4586 31.909 14.9818 31.8815C15.5919 31.8496 15.8539 31.854 15.857 31.819C15.8626 31.7508 14.9687 31.7965 14.1691 31.4439C12.7045 30.7981 12.1937 29.0984 12.1687 29.0059Z" fill="#E14D61"/>
<path d="M36.1918 28C35.6373 23.8961 32.2785 21.3281 30.9851 20.4416C30.8182 19.9622 30.6519 19.4833 30.485 19.0038C30.485 19.0038 30.485 19.0045 30.485 19.0051C30.4219 18.7863 30.3643 18.6544 30.3643 18.6544C30.2912 18.4862 29.9505 17.7386 29.1697 17.2022C27.7538 16.2302 25.7465 16.4858 25.6534 16.899C25.5346 17.4229 28.4615 18.3731 28.3477 18.7182C28.2314 19.0714 25.0989 18.1662 24.9082 18.6525C24.7213 19.1301 27.5375 20.5229 27.3594 20.9417C27.2025 21.3112 24.6769 20.2441 24.3581 20.803C24.1443 21.1774 24.9976 22.1101 25.734 22.5671C25.9816 22.7208 26.6017 23.0934 27.3594 23.0047C27.4963 22.9884 27.59 22.9628 27.6719 22.9421C28.1164 22.8284 28.794 22.6965 29.7974 22.6296C30.3281 23.0684 31.1714 23.8748 31.8159 25.1245C32.3091 26.0821 32.9799 27.403 32.566 28.9377C32.5417 29.0271 32.0297 30.7231 30.5656 31.3757C29.8292 31.7039 29.0416 31.6839 29.0472 31.7564C29.0485 31.7745 29.1016 31.8164 30.2349 31.8189C31.2089 31.8208 31.999 31.7914 32.6729 31.7564C33.1212 31.7333 33.6112 31.7027 33.6106 31.6939C33.6106 31.6839 32.9374 31.7052 32.9374 31.702C32.9374 31.7008 33.0011 31.6983 33.1105 31.6939C33.3156 31.6858 33.5206 31.6795 33.7982 31.6314C33.7982 31.6314 34.1357 31.5733 34.5039 31.4382C34.6733 31.3763 34.8084 31.3001 34.8084 31.3001C34.9153 31.2588 34.9978 31.2194 35.0484 31.1932C35.0484 31.1932 35.9192 30.7481 36.1918 29.9373C36.2011 29.9098 36.2093 29.8817 36.2093 29.8817C36.2243 29.8317 36.2412 29.766 36.2543 29.6873C36.2862 29.1465 36.2705 28.5827 36.1918 27.9994V28Z" fill="#E14D61"/>
<path d="M32.4854 11.0023C30.3806 11.0229 28.2764 11.0441 26.1716 11.0648L32.4854 11.0023Z" fill="white"/>
<path d="M21.6707 27.318C23.0171 27.318 24.1086 26.2265 24.1086 24.88C24.1086 23.5335 23.0171 22.442 21.6707 22.442C20.3242 22.442 19.2327 23.5335 19.2327 24.88C19.2327 26.2265 20.3242 27.318 21.6707 27.318Z" fill="#E14D61"/>
<path d="M16.8441 29.6882C17.8626 29.6882 18.6882 28.8626 18.6882 27.8441C18.6882 26.8256 17.8626 26 16.8441 26C15.8256 26 15 26.8256 15 27.8441C15 28.8626 15.8256 29.6882 16.8441 29.6882Z" fill="#E14D61"/>
<path d="M24.9211 30.3811C25.5426 30.3811 26.0464 29.8773 26.0464 29.2559C26.0464 28.6345 25.5426 28.1307 24.9211 28.1307C24.2997 28.1307 23.7959 28.6345 23.7959 29.2559C23.7959 29.8773 24.2997 30.3811 24.9211 30.3811Z" fill="#E14D61"/>
<path d="M30.2035 29.506C30.4969 29.506 30.7348 29.2681 30.7348 28.9746C30.7348 28.6811 30.4969 28.4432 30.2035 28.4432C29.91 28.4432 29.6721 28.6811 29.6721 28.9746C29.6721 29.2681 29.91 29.506 30.2035 29.506Z" fill="#E14D61"/>
<path d="M27.3906 26.9429C27.8566 26.9429 28.2345 26.5651 28.2345 26.099C28.2345 25.6329 27.8566 25.2551 27.3906 25.2551C26.9245 25.2551 26.5466 25.6329 26.5466 26.099C26.5466 26.5651 26.9245 26.9429 27.3906 26.9429Z" fill="#E14D61"/>
<path d="M17.5791 28.5145L16.8921 27.1249C16.8146 26.968 16.9765 26.7979 17.1359 26.8698C17.6497 27.103 18.3661 27.6087 17.9167 28.5133C17.8473 28.6527 17.6485 28.6539 17.5797 28.5145H17.5791Z" fill="white"/>
<path d="M22.9145 25.4364L21.9118 23.4091C21.7987 23.1797 22.0343 22.9315 22.2675 23.0372C23.0177 23.3779 24.0616 24.1155 23.4065 25.4345C23.3052 25.6383 23.0152 25.6402 22.9145 25.4364Z" fill="white"/>
<path d="M25.3676 29.5522L24.9144 28.6358C24.8631 28.532 24.97 28.4201 25.075 28.4676C25.4138 28.6214 25.8864 28.9552 25.5901 29.5516C25.5445 29.6435 25.4132 29.6447 25.3676 29.5522Z" fill="white"/>
<path d="M27.7367 26.3978L27.401 25.719C27.3628 25.6421 27.4422 25.5589 27.5198 25.5946C27.7711 25.7083 28.1205 25.9553 27.9011 26.3972C27.8673 26.4654 27.7704 26.466 27.7367 26.3972V26.3978Z" fill="white"/>
<path d="M30.401 29.1621L30.1803 28.7164C30.1553 28.6658 30.2072 28.6114 30.2585 28.6345C30.4235 28.7095 30.6529 28.8714 30.5091 29.1621C30.4866 29.2071 30.4229 29.2071 30.401 29.1621Z" fill="white"/>
</g>
<defs>
<clipPath id="clip0_1485_343">
<rect width="44.8816" height="34.3894" fill="white"/>
</clipPath>
</defs>
</svg>
