<svg width="473" height="203" viewBox="0 0 473 203" fill="none" xmlns="http://www.w3.org/2000/svg">
<path d="M45.32 40.08C45.32 42.98 46.17 45.57 47.86 47.86C49.55 50.15 51.79 52.27 54.58 54.22C57.37 56.18 60.53 58.03 64.07 59.79C67.61 61.55 71.23 63.36 74.95 65.23C78.66 67.1 82.29 69.1 85.83 71.23C89.37 73.36 92.53 75.77 95.32 78.45C98.11 81.13 100.35 84.16 102.04 87.55C103.73 90.93 104.58 94.8 104.58 99.15C104.58 103.11 103.94 106.74 102.67 110.06C101.4 113.38 99.65 116.36 97.43 118.99C95.21 121.63 92.59 123.96 89.55 125.98C86.52 128 83.24 129.67 79.73 130.99C76.21 132.31 72.52 133.31 68.66 133.99C64.79 134.67 60.9 135.01 56.99 135.01C51.5 135.01 46.16 134.34 40.97 133C35.78 131.66 31.17 129.64 27.13 126.94C23.09 124.24 19.85 120.85 17.41 116.79C14.97 112.73 13.75 107.97 13.75 102.52C13.75 99.71 14.2 97.24 15.1 95.1C16 92.97 17.12 91.19 18.46 89.76C19.8 88.33 21.26 87.26 22.84 86.53C24.42 85.8 25.89 85.44 27.26 85.44C28.63 85.44 29.84 85.82 30.79 86.59C31.73 87.36 32.21 88.56 32.21 90.18C32.21 90.93 32.12 91.72 31.95 92.55C31.77 93.38 31.59 94.3 31.39 95.29C31.19 96.28 31.01 97.37 30.83 98.55C30.65 99.74 30.57 101.03 30.57 102.44C30.57 105.52 31.27 108.18 32.68 110.42C34.09 112.66 35.95 114.51 38.28 115.96C40.61 117.41 43.29 118.49 46.32 119.19C49.35 119.89 52.49 120.24 55.75 120.24C59.57 120.24 63.4 119.78 67.22 118.86C71.04 117.94 74.47 116.58 77.5 114.77C80.53 112.96 82.99 110.76 84.88 108.15C86.77 105.54 87.71 102.54 87.71 99.15C87.71 96.03 86.86 93.24 85.17 90.78C83.48 88.32 81.24 86.04 78.45 83.96C75.66 81.87 72.48 79.91 68.93 78.06C65.38 76.21 61.74 74.35 58.05 72.46C54.36 70.57 50.73 68.58 47.17 66.5C43.61 64.41 40.44 62.12 37.65 59.61C34.86 57.11 32.62 54.3 30.93 51.21C29.24 48.11 28.39 44.59 28.39 40.63C28.39 36.94 29.28 33.3 31.06 29.72C32.84 26.14 35.52 22.93 39.1 20.1C42.68 17.27 47.15 14.97 52.51 13.21C57.87 11.45 64.16 10.57 71.36 10.57C75.93 10.57 80.4 11.25 84.77 12.61C89.14 13.97 93.04 15.91 96.47 18.41C99.9 20.92 102.66 23.9 104.74 27.37C106.83 30.84 107.87 34.69 107.87 38.91C107.87 41.41 107.44 43.99 106.58 46.62C105.72 49.26 104.35 52 102.46 54.86C100.61 57.63 98.6 59.68 96.43 61.02C94.25 62.36 92.29 63.03 90.53 63.03C89.21 63.03 88.13 62.65 87.3 61.88C86.46 61.11 86.05 59.96 86.05 58.42C86.05 57.28 86.31 55.93 86.84 54.37C87.37 52.81 88.27 51.02 89.54 49C90.73 47.07 91.6 45.25 92.18 43.56C92.75 41.87 93.04 40.3 93.04 38.85C93.04 36.61 92.44 34.64 91.23 32.95C90.02 31.26 88.35 29.84 86.22 28.7C84.09 27.56 81.53 26.7 78.54 26.13C75.55 25.56 72.28 25.27 68.72 25.27C64.76 25.27 61.33 25.72 58.4 26.62C55.48 27.52 53.04 28.69 51.08 30.11C49.12 31.54 47.67 33.13 46.73 34.89C45.78 36.65 45.31 38.38 45.31 40.1L45.32 40.08Z" fill="white"/>
<path d="M186.12 110.41C185.11 111.82 183.76 113.47 182.07 115.35C180.38 117.24 178.48 119.04 176.37 120.76C174.26 122.48 172 123.92 169.58 125.11C167.16 126.3 164.75 126.89 162.33 126.89C159.43 126.89 157.01 125.96 155.08 124.09C153.15 122.22 151.48 119.51 150.07 115.95C149.02 117.18 147.72 118.43 146.18 119.71C144.64 120.99 142.96 122.14 141.14 123.17C139.32 124.2 137.42 125.05 135.44 125.71C133.46 126.37 131.48 126.7 129.51 126.7C127.4 126.7 125.35 126.27 123.35 125.41C121.35 124.55 119.58 123.32 118.04 121.72C116.5 120.12 115.27 118.16 114.35 115.85C113.43 113.54 112.97 110.94 112.97 108.04C112.97 104.75 113.43 101.36 114.35 97.89C115.27 94.42 116.55 91.02 118.17 87.71C119.8 84.39 121.72 81.26 123.94 78.32C126.16 75.38 128.59 72.81 131.22 70.61C133.86 68.41 136.64 66.67 139.56 65.37C142.48 64.07 145.46 63.43 148.49 63.43C149.5 63.43 150.29 63.63 150.86 64.02C151.43 64.42 151.9 64.87 152.28 65.37C152.65 65.88 153.02 66.37 153.37 66.85C153.72 67.33 154.16 67.68 154.69 67.9C155.22 68.12 155.75 68.26 156.31 68.33C156.86 68.4 157.42 68.43 157.99 68.43C158.47 68.43 158.97 68.42 159.47 68.4C159.97 68.38 160.47 68.37 160.95 68.37C161.61 68.37 162.23 68.44 162.8 68.57C163.37 68.7 163.88 68.99 164.32 69.43C164.76 69.87 165.1 70.48 165.34 71.28C165.58 72.07 165.7 73.15 165.7 74.51C165.7 76.62 165.48 78.96 165.04 81.53C164.6 84.1 164.12 86.74 163.59 89.44C163.06 92.14 162.58 94.85 162.14 97.55C161.7 100.25 161.48 102.81 161.48 105.23C161.48 107.3 161.67 108.91 162.04 110.07C162.41 111.24 163.22 111.82 164.45 111.82C165.37 111.82 166.34 111.59 167.35 111.13C168.36 110.67 169.38 110.07 170.41 109.32C171.44 108.57 172.48 107.73 173.51 106.78C174.54 105.84 175.52 104.86 176.44 103.85C178.59 101.48 180.77 98.8 182.97 95.81L186.13 110.44L186.12 110.41ZM129.83 105.2C129.83 106.3 129.91 107.37 130.06 108.4C130.21 109.43 130.49 110.36 130.88 111.17C131.28 111.98 131.8 112.64 132.46 113.15C133.12 113.66 133.95 113.91 134.97 113.91C136.59 113.91 138.07 113.21 139.39 111.8C140.71 110.39 141.85 108.7 142.82 106.72C143.79 104.74 144.57 102.7 145.16 100.59C145.75 98.48 146.14 96.72 146.31 95.32L150.33 75.94C148.53 75.94 146.77 76.39 145.06 77.29C143.35 78.19 141.73 79.41 140.22 80.95C138.7 82.49 137.31 84.25 136.03 86.22C134.75 88.2 133.66 90.27 132.73 92.45C131.81 94.62 131.09 96.81 130.59 99.01C130.08 101.21 129.83 103.27 129.83 105.21V105.2Z" fill="white"/>
<path d="M199.7 73.5C202.16 70.42 204.41 67.95 206.46 66.08C208.5 64.21 210.54 63.28 212.56 63.28C215.15 63.28 217.46 63.85 219.48 64.99C221.5 66.13 223.21 67.65 224.62 69.54C226.03 71.43 227.1 73.61 227.85 76.07C228.6 78.53 228.97 81.1 228.97 83.78C228.97 86.02 228.88 88.14 228.71 90.14C228.53 92.14 228.22 94.1 227.75 96.01C227.29 97.92 226.65 99.82 225.84 101.71C225.03 103.6 223.96 105.56 222.64 107.58C224.22 106.66 225.83 105.76 227.45 104.88C229.07 104 230.71 103.03 232.36 101.98C234.01 100.93 235.67 99.75 237.34 98.45C239.01 97.15 240.72 95.63 242.48 93.87L247.56 104.75C245.14 106.95 242.74 108.86 240.34 110.48C237.94 112.11 235.48 113.52 232.96 114.73C230.43 115.94 227.8 116.98 225.05 117.86C222.3 118.74 219.39 119.53 216.32 120.23C215.57 120.98 214.55 121.72 213.25 122.47C211.95 123.22 210.67 123.9 209.39 124.51C207.94 125.21 206.38 125.89 204.71 126.55H203.06C199.32 126.55 195.62 126.03 191.95 125C188.28 123.97 184.95 122.81 181.96 121.54C178.49 120.09 175.17 118.42 172.01 116.53C172.14 112.97 172.41 108.95 172.8 104.47C173.15 100.6 173.63 96.04 174.25 90.79C174.87 85.54 175.7 79.68 176.75 73.22C177.45 68.91 178.33 64.11 179.39 58.82C180.44 53.53 181.69 48.16 183.11 42.74C184.54 37.31 186.14 32.04 187.92 26.92C189.7 21.8 191.68 17.24 193.85 13.24C196.03 9.24 198.4 6.03 200.97 3.62C203.54 1.2 206.32 0 209.31 0C212.65 0 215.33 0.57 217.35 1.71C219.37 2.85 220.93 4.4 222.03 6.36C223.13 8.32 223.85 10.61 224.21 13.25C224.56 15.89 224.74 18.7 224.74 21.69C224.74 25.86 223.96 30.17 222.4 34.61C220.84 39.05 218.81 43.48 216.3 47.89C213.8 52.31 210.99 56.62 207.9 60.84C204.8 65.06 201.71 69.04 198.64 72.77L199.69 73.49L199.7 73.5ZM205.63 78.31C204.09 78.31 202.55 78.63 201.02 79.27C199.48 79.91 198.05 80.9 196.73 82.24C195.41 83.58 194.25 85.29 193.24 87.38C192.23 89.47 191.48 91.98 191 94.93C190.6 97.3 190.28 99.49 190.01 101.49C189.75 103.49 189.53 105.26 189.35 106.8C189.17 108.56 189.02 110.21 188.89 111.74C190.34 112.18 191.79 112.55 193.24 112.86C194.51 113.12 195.85 113.37 197.26 113.58C198.67 113.8 200.01 113.91 201.28 113.91C202.77 113.91 204.14 113.47 205.37 112.59C206.6 111.71 207.7 110.54 208.67 109.06C209.64 107.59 210.47 105.91 211.17 104.02C211.87 102.13 212.44 100.16 212.88 98.12C213.32 96.08 213.65 94.06 213.87 92.06C214.09 90.06 214.2 88.23 214.2 86.56C214.2 85.46 214.08 84.42 213.84 83.43C213.6 82.44 213.16 81.57 212.52 80.83C211.88 80.08 211 79.48 209.88 79.02C208.76 78.56 207.34 78.33 205.63 78.33V78.31ZM212.09 17.93C212.09 17.76 212.06 17.38 211.99 16.81C211.92 16.24 211.77 15.65 211.53 15.03C211.29 14.41 210.95 13.87 210.51 13.38C210.07 12.9 209.48 12.66 208.73 12.66C207.85 12.66 206.94 13.29 205.99 14.54C205.04 15.79 204.11 17.48 203.19 19.62C202.27 21.75 201.37 24.21 200.49 27C199.61 29.79 198.75 32.71 197.92 35.77C197.08 38.82 196.3 41.93 195.58 45.1C194.86 48.26 194.2 51.26 193.6 54.1C193.01 56.93 192.49 59.53 192.05 61.88C191.61 64.23 191.26 66.13 191 67.58C192.19 65.29 193.52 62.92 194.99 60.46C196.46 58 197.95 55.44 199.44 52.78C200.93 50.12 202.4 47.4 203.82 44.61C205.25 41.82 206.54 38.96 207.71 36.04C208.87 33.12 209.84 30.15 210.61 27.14C211.38 24.13 211.87 21.07 212.09 17.94V17.93Z" fill="white"/>
<path d="M281.44 77.19C282.71 79.74 283.67 82.43 284.31 85.27C284.95 88.1 285.27 90.82 285.27 93.41C285.27 96 284.98 98.62 284.41 101.25C283.84 103.88 283.01 106.44 281.94 108.9C280.86 111.36 279.54 113.67 277.98 115.82C276.42 117.97 274.64 119.84 272.64 121.42C270.64 123 268.45 124.25 266.08 125.18C263.71 126.1 261.18 126.56 258.5 126.56C254.63 126.56 251.33 125.71 248.58 124.02C245.83 122.33 243.58 120.12 241.82 117.4C240.06 114.68 238.78 111.6 237.96 108.17C237.15 104.74 236.74 101.27 236.74 97.75C236.74 92.92 237.46 88.4 238.92 84.2C240.37 80 242.45 76.36 245.15 73.26C247.85 70.16 251.16 67.72 255.07 65.94C258.98 64.16 263.38 63.27 268.25 63.27C272.42 63.27 276.33 63.92 279.98 65.21C283.63 66.51 287.04 68.24 290.23 70.42C293.42 72.59 296.38 75.09 299.13 77.9C301.88 80.71 304.44 83.61 306.81 86.6L305.56 95.89C304.37 94.31 302.77 92.6 300.75 90.75C298.73 88.9 296.59 87.1 294.32 85.34C292.06 83.58 289.83 81.92 287.63 80.36C285.43 78.8 283.54 77.49 281.96 76.44L281.43 77.16L281.44 77.19ZM261.07 113.91C262.56 113.91 264.01 113.15 265.42 111.64C266.83 110.12 268.06 108.21 269.11 105.91C270.16 103.6 271.01 101.05 271.65 98.26C272.29 95.47 272.61 92.8 272.61 90.25C272.61 88.23 272.46 86.35 272.15 84.61C271.84 82.87 271.38 81.37 270.77 80.09C270.15 78.82 269.36 77.81 268.4 77.06C267.43 76.31 266.27 75.94 264.91 75.94C263.11 75.94 261.39 76.71 259.77 78.25C258.14 79.79 256.71 81.76 255.48 84.15C254.25 86.55 253.28 89.19 252.58 92.09C251.88 94.99 251.53 97.78 251.53 100.46C251.53 102.31 251.7 104.04 252.06 105.67C252.41 107.3 252.96 108.71 253.71 109.92C254.46 111.13 255.45 112.1 256.68 112.82C257.91 113.55 259.38 113.91 261.1 113.91H261.07Z" fill="white"/>
<path d="M298.51 112.79C298.51 110.86 298.62 108.6 298.84 106.03C299.06 103.46 299.36 100.75 299.73 97.89C300.1 95.03 300.54 92.12 301.05 89.16C301.55 86.19 302.09 83.37 302.66 80.69C303.23 78.01 303.8 75.55 304.37 73.31C304.94 71.07 305.51 69.22 306.08 67.77C306.43 66.8 306.78 66.03 307.13 65.46C307.48 64.89 307.89 64.44 308.35 64.11C308.81 63.78 309.38 63.56 310.06 63.45C310.74 63.34 311.59 63.28 312.6 63.28C313.74 63.28 314.63 63.34 315.27 63.45C315.91 63.56 316.38 63.82 316.69 64.24C317 64.66 317.18 65.26 317.25 66.05C317.32 66.84 317.35 67.92 317.35 69.28V75.18C317.35 77.49 317.39 79.76 317.48 82H318.2C319.08 80.24 320.07 78.28 321.17 76.1C322.27 73.92 323.54 71.89 324.99 70C326.44 68.11 328.09 66.52 329.93 65.22C331.78 63.92 333.91 63.28 336.32 63.28C337.15 63.28 337.97 63.42 338.76 63.71C339.55 64 340.24 64.4 340.84 64.93C341.43 65.46 341.9 66.11 342.26 66.87C342.61 67.64 342.79 68.51 342.79 69.47C342.79 70.22 342.68 71.26 342.46 72.6C342.24 73.94 342 75.35 341.74 76.82C341.48 78.29 341.23 79.72 341.02 81.11C340.8 82.49 340.69 83.65 340.69 84.57C340.69 86.15 340.84 87.47 341.15 88.53C341.46 89.59 341.86 90.43 342.37 91.07C342.87 91.71 343.45 92.16 344.08 92.42C344.72 92.68 345.39 92.82 346.09 92.82C348.07 92.82 350.11 92.38 352.22 91.5C354.33 90.62 356.26 89.63 358.02 88.53C360.09 87.26 362.11 85.81 364.08 84.18L363.09 99.6C361.95 100.35 360.65 101.18 359.2 102.11C357.75 103.03 356.2 103.9 354.55 104.71C352.9 105.52 351.19 106.2 349.41 106.75C347.63 107.3 345.82 107.57 343.97 107.57C340.67 107.57 338.01 106.9 335.99 105.56C333.97 104.22 332.36 102.46 331.18 100.29C329.99 98.12 329.11 95.68 328.54 92.97C327.97 90.27 327.51 87.53 327.16 84.76H326.11L314.31 117.65C313.69 119.36 313.11 120.78 312.56 121.9C312.01 123.02 311.45 123.93 310.88 124.64C310.31 125.34 309.69 125.84 309.03 126.12C308.37 126.41 307.65 126.55 306.85 126.55C305.05 126.55 303.6 126.17 302.5 125.4C301.4 124.63 300.55 123.6 299.96 122.3C299.37 121 298.97 119.53 298.77 117.88C298.57 116.23 298.47 114.53 298.47 112.77L298.51 112.79Z" fill="white"/>
<path d="M377.74 126.56C373.61 126.56 369.99 125.81 366.9 124.32C363.8 122.83 361.22 120.82 359.15 118.29C357.08 115.76 355.53 112.84 354.5 109.52C353.47 106.2 352.95 102.72 352.95 99.07C352.95 96.61 353.19 94.01 353.68 91.26C354.16 88.51 354.9 85.82 355.89 83.18C356.88 80.54 358.12 78.03 359.61 75.63C361.1 73.24 362.85 71.13 364.85 69.3C366.85 67.48 369.09 66.03 371.57 64.95C374.05 63.87 376.81 63.34 379.84 63.34C382.3 63.34 384.59 63.73 386.7 64.53C388.81 65.33 390.64 66.43 392.2 67.86C393.76 69.29 394.98 71.01 395.86 73.03C396.74 75.05 397.18 77.32 397.18 79.82C397.18 82.55 396.51 85.27 395.17 87.99C393.83 90.72 391.97 93.29 389.6 95.7C387.23 98.12 384.4 100.27 381.13 102.16C377.86 104.05 374.31 105.52 370.48 106.58C371.14 107.77 371.79 108.75 372.42 109.55C373.06 110.34 373.71 110.96 374.36 111.4C375.02 111.84 375.71 112.15 376.44 112.32C377.16 112.5 377.94 112.58 378.78 112.58C381.42 112.58 384.2 112.05 387.12 111C390.04 109.95 392.89 108.63 395.66 107.04C398.43 105.45 401.04 103.73 403.5 101.87C405.96 100 408.05 98.23 409.76 96.56L418.26 105.39C414.39 109.39 410.28 112.93 405.93 116C404.04 117.32 402.01 118.62 399.83 119.89C397.66 121.17 395.37 122.3 392.97 123.29C390.57 124.28 388.09 125.07 385.52 125.66C382.95 126.25 380.35 126.55 377.71 126.55L377.74 126.56ZM368.97 95.58C370.55 95.58 372.28 95.17 374.14 94.36C376.01 93.55 377.74 92.5 379.35 91.23C380.95 89.96 382.31 88.57 383.4 87.08C384.5 85.59 385.05 84.14 385.05 82.73C385.05 80.75 384.69 79.13 383.96 77.85C383.23 76.58 382.34 75.94 381.29 75.94C379.4 75.94 377.79 76.29 376.45 76.99C375.11 77.69 373.99 78.61 373.09 79.73C372.19 80.85 371.46 82.13 370.92 83.55C370.37 84.98 369.95 86.42 369.67 87.87C369.38 89.32 369.2 90.73 369.11 92.09C369.02 93.45 368.98 94.62 368.98 95.58H368.97Z" fill="white"/>
<path d="M405.23 101.25C407.69 99.14 409.69 97.38 411.23 95.98C412.77 94.57 414.09 93.29 415.19 92.12C416.29 90.96 417.29 89.78 418.19 88.59C419.09 87.4 420.16 86 421.39 84.37C422.62 82.75 424.11 80.76 425.87 78.4C427.63 76.05 429.91 73.12 432.73 69.6C433.3 68.81 433.94 68.04 434.64 67.29C435.34 66.54 436.12 65.87 436.98 65.28C437.84 64.69 438.78 64.2 439.81 63.83C440.84 63.46 442 63.27 443.27 63.27C445.38 63.27 447 63.5 448.15 63.96C449.29 64.42 450.13 64.98 450.66 65.64C451.19 66.3 451.49 66.99 451.58 67.72C451.67 68.45 451.71 69.07 451.71 69.6C451.71 70.65 451.29 71.82 450.46 73.09C449.63 74.36 448.7 75.59 447.69 76.78C446.68 77.97 445.72 79.05 444.82 80.04C443.92 81.03 443.4 81.76 443.27 82.25C443.27 83.61 443.37 84.85 443.57 85.97C443.77 87.09 444.03 88.19 444.36 89.27C444.69 90.35 445.03 91.49 445.38 92.7C445.73 93.91 446.07 95.3 446.4 96.89C446.73 98.47 446.99 100.3 447.19 102.36C447.39 104.43 447.49 106.86 447.49 109.68C449.07 108.63 450.77 107.67 452.6 106.81C454.42 105.95 456.32 105.06 458.3 104.14C460.28 103.22 462.31 102.2 464.4 101.07C466.49 99.95 468.59 98.6 470.7 97.02L470.77 111.79C468.04 113.9 464.89 115.88 461.31 117.72C457.73 119.57 453.97 121.19 450.04 122.6C446.11 124.01 442.13 125.12 438.11 125.93C434.09 126.74 430.28 127.15 426.67 127.15C424.08 127.15 421.66 126.91 419.42 126.42C417.18 125.94 415.21 125.18 413.52 124.15C411.83 123.12 410.45 121.77 409.4 120.1C408.35 118.43 407.71 116.41 407.49 114.04C406.87 114.17 406.27 114.26 405.68 114.3C405.09 114.34 404.5 114.37 403.93 114.37C403.23 114.37 402.57 114.35 401.95 114.3C401.33 114.26 400.81 114.09 400.37 113.81C399.93 113.52 399.58 113.06 399.32 112.43C399.06 111.79 398.92 110.88 398.92 109.69C398.92 108.64 399.18 107.66 399.71 106.76C400.24 105.86 400.85 105.06 401.56 104.35C402.26 103.65 402.97 103.03 403.67 102.5C404.37 101.97 404.9 101.56 405.25 101.25H405.23ZM413.67 109.69C414.2 109.69 414.78 110.02 415.42 110.68C416.06 111.34 416.79 112.06 417.63 112.86C418.46 113.65 419.43 114.38 420.53 115.04C421.63 115.7 422.88 116.03 424.29 116.03C426 116.03 427.42 115.74 428.54 115.17C429.66 114.6 430.55 113.84 431.21 112.9C431.87 111.96 432.33 110.86 432.59 109.6C432.85 108.35 432.99 107.04 432.99 105.68C432.99 104.49 432.91 103.29 432.76 102.06C432.61 100.83 432.41 99.65 432.17 98.53C431.93 97.41 431.66 96.35 431.38 95.37C431.09 94.38 430.84 93.54 430.62 92.83L413.68 109.71L413.67 109.69Z" fill="white"/>
<path d="M124.71 182.54H109.4L106.42 190.46C106.23 190.94 105.8 191.23 105.32 191.23C105.22 191.23 105.03 191.18 104.89 191.18C104.31 190.94 103.98 190.22 104.22 189.64L115.89 158.48C116.08 158.05 116.56 157.76 117.04 157.76C117.57 157.76 118.05 158.05 118.19 158.48L129.86 189.64C130.1 190.22 129.81 190.94 129.24 191.18C129.05 191.18 128.95 191.23 128.81 191.23C128.38 191.23 127.9 190.94 127.71 190.46L124.73 182.54H124.71ZM110.26 180.19H123.85L117.08 162.14L110.26 180.19Z" fill="white"/>
<path d="M153.61 177.31C153.61 173.33 150.39 170.06 146.36 170.06C142.33 170.06 139.16 173.32 139.06 177.31V190.27C139.01 190.46 138.96 190.65 138.82 190.8C138.63 191.09 138.29 191.23 137.96 191.23H137.67C137.33 191.13 137.05 190.89 136.9 190.61C136.85 190.56 136.85 190.51 136.85 190.47C136.85 190.43 136.8 190.37 136.8 190.37V168.91C136.8 168.29 137.28 167.76 137.95 167.76C138.57 167.76 139.05 168.29 139.05 168.91V171.17C140.78 169.11 143.42 167.76 146.35 167.76C151.63 167.76 155.9 172.08 155.9 177.31V190.08C155.9 190.75 155.37 191.23 154.75 191.23C154.13 191.23 153.6 190.75 153.6 190.08V177.31H153.61Z" fill="white"/>
<path d="M164.55 179.42C164.55 172.89 169.93 167.71 176.65 167.71C179.43 167.71 182.07 168.67 184.14 170.3C184.62 170.64 184.72 171.36 184.28 171.88C183.9 172.31 183.22 172.46 182.7 172.07C181.02 170.73 178.91 169.96 176.65 169.96C171.18 169.96 166.86 174.23 166.86 179.42C166.86 184.61 171.18 188.92 176.65 188.92C178.91 188.92 181.02 188.15 182.7 186.86C183.23 186.48 183.9 186.62 184.28 187.05C184.71 187.58 184.62 188.3 184.04 188.73C182.07 190.27 179.43 191.23 176.65 191.23C169.93 191.23 164.55 186.05 164.55 179.42Z" fill="white"/>
<path d="M191.24 179.52C191.24 172.99 196.33 167.71 202.66 167.71C208.99 167.71 213.51 172.51 213.99 178.66V178.85C213.99 179.47 213.46 179.91 212.84 179.91H193.54C193.78 185.05 197.81 188.94 202.66 188.94C205.78 188.94 208.66 187.31 210.24 184.67C210.58 184.09 211.3 184 211.78 184.29C212.31 184.67 212.5 185.35 212.16 185.92C210.14 189.14 206.64 191.25 202.66 191.25C196.32 191.25 191.24 185.97 191.24 179.54V179.52ZM193.69 177.65H211.5C210.73 173.23 206.99 170.02 202.67 170.02C198.35 170.02 194.56 173.19 193.69 177.65Z" fill="white"/>
<path d="M220.52 186.33C220.9 185.85 221.62 185.75 222.15 186.19C223.78 187.39 226.37 188.93 229.35 188.93C231.17 188.93 232.76 188.35 233.81 187.49C234.96 186.72 235.59 185.67 235.59 184.61C235.54 183.51 235.11 182.74 233.91 181.73C232.9 180.96 231.22 180.39 228.92 180L228.82 179.95C226.71 179.57 224.84 179.09 223.49 178.13C222 177.27 220.95 175.73 220.95 173.91C220.95 172.09 222.01 170.41 223.49 169.3C224.88 168.34 226.85 167.72 229.25 167.72C232.27 167.72 234.43 169.11 236.26 170.26C236.79 170.64 236.93 171.36 236.6 171.89C236.26 172.42 235.54 172.56 235.02 172.23C233.29 171.08 231.56 169.88 229.26 169.88C227.34 169.88 225.8 170.41 224.8 171.22C223.84 171.99 223.31 172.95 223.31 173.91C223.31 174.87 223.74 175.54 224.65 176.26C225.71 176.98 227.29 177.56 229.45 177.89H229.55C231.81 178.23 233.63 178.9 235.26 179.81C236.8 180.82 237.9 182.64 237.9 184.61C237.9 186.58 236.8 188.16 235.21 189.36C233.58 190.56 231.66 191.23 229.35 191.23C225.56 191.18 222.58 189.41 220.66 187.87C220.18 187.44 220.13 186.81 220.52 186.33V186.33Z" fill="white"/>
<path d="M254.69 168.86C254.69 169.44 254.11 170.01 253.54 170.01H250.52V187.15C250.52 188.3 251.67 188.88 252.25 188.88C252.83 188.88 253.45 189.5 253.45 190.08C253.45 190.66 252.83 191.23 252.25 191.23C249.9 191.23 248.12 189.5 248.12 187.15V170.01H245.19C244.04 170.01 244.04 169.43 244.04 168.86C244.04 168.29 244.04 167.71 245.19 167.71H248.12V158.97C248.12 158.39 248.7 157.82 249.27 157.82C249.89 157.82 250.52 158.4 250.52 158.97V167.71H253.54C254.12 167.71 254.69 168.29 254.69 168.86V168.86Z" fill="white"/>
<path d="M262.32 168.91C262.32 168.24 262.85 167.76 263.52 167.76C264.1 167.76 264.62 168.24 264.62 168.91V174.09C264.72 173.9 264.81 173.71 264.96 173.51C266.74 170.73 269.86 167.75 274.37 167.75C274.99 167.75 275.52 168.23 275.52 168.9C275.52 169.52 274.99 170.05 274.37 170.05C271.3 170.05 269.19 171.78 267.55 173.89C265.97 176 265.05 178.4 264.72 179.36C264.62 179.55 264.62 179.65 264.62 179.74V190.06C264.62 190.73 264.09 191.21 263.52 191.21C262.85 191.21 262.32 190.73 262.32 190.06V168.89V168.91Z" fill="white"/>
<path d="M301.93 168.86V190.08C301.93 190.7 301.4 191.23 300.78 191.23C300.16 191.23 299.63 190.7 299.63 190.08V186.58C297.61 189.36 294.4 191.24 290.8 191.24C284.61 191.24 279.66 185.91 279.66 179.48C279.66 173.05 284.6 167.72 290.8 167.72C294.4 167.72 297.62 169.54 299.63 172.33V168.87C299.63 168.2 300.16 167.72 300.78 167.72C301.4 167.72 301.93 168.2 301.93 168.87V168.86ZM299.63 179.47C299.63 174.19 295.65 169.97 290.8 169.97C285.95 169.97 281.97 174.19 281.97 179.47C281.97 184.75 286 188.93 290.8 188.93C295.6 188.93 299.63 184.75 299.63 179.47Z" fill="white"/>
<path d="M312.92 158.78C312.92 158.16 313.45 157.63 314.07 157.63C314.74 157.63 315.27 158.16 315.27 158.78V190.08C315.27 190.7 314.74 191.23 314.07 191.23C313.45 191.23 312.92 190.7 312.92 190.08V158.78Z" fill="white"/>
<path d="M325.01 179.52C325.01 172.99 330.1 167.71 336.43 167.71C342.76 167.71 347.28 172.51 347.76 178.66V178.85C347.76 179.47 347.23 179.91 346.61 179.91H327.31C327.55 185.05 331.58 188.94 336.43 188.94C339.55 188.94 342.43 187.31 344.01 184.67C344.35 184.09 345.07 184 345.55 184.29C346.08 184.67 346.27 185.35 345.93 185.92C343.91 189.14 340.41 191.25 336.43 191.25C330.09 191.25 325.01 185.97 325.01 179.54V179.52ZM327.46 177.65H345.27C344.5 173.23 340.76 170.02 336.44 170.02C332.12 170.02 328.33 173.19 327.46 177.65Z" fill="white"/>
<path d="M354.29 186.33C354.67 185.85 355.39 185.75 355.92 186.19C357.55 187.39 360.14 188.93 363.12 188.93C364.94 188.93 366.53 188.35 367.58 187.49C368.73 186.72 369.36 185.67 369.36 184.61C369.31 183.51 368.88 182.74 367.68 181.73C366.67 180.96 364.99 180.39 362.69 180L362.59 179.95C360.48 179.57 358.61 179.09 357.26 178.13C355.77 177.27 354.72 175.73 354.72 173.91C354.72 172.09 355.78 170.41 357.26 169.3C358.65 168.34 360.62 167.72 363.02 167.72C366.04 167.72 368.2 169.11 370.03 170.26C370.56 170.64 370.7 171.36 370.37 171.89C370.03 172.42 369.31 172.56 368.79 172.23C367.06 171.08 365.33 169.88 363.03 169.88C361.11 169.88 359.57 170.41 358.57 171.22C357.61 171.99 357.08 172.95 357.08 173.91C357.08 174.87 357.51 175.54 358.42 176.26C359.48 176.98 361.06 177.56 363.22 177.89H363.32C365.58 178.23 367.4 178.9 369.03 179.81C370.57 180.82 371.67 182.64 371.67 184.61C371.67 186.58 370.57 188.16 368.98 189.36C367.35 190.56 365.43 191.23 363.12 191.23C359.33 191.18 356.35 189.41 354.43 187.87C353.95 187.44 353.9 186.81 354.29 186.33V186.33Z" fill="white"/>
<path d="M404.5 200.56C416.374 200.56 426 190.934 426 179.06C426 167.186 416.374 157.56 404.5 157.56C392.626 157.56 383 167.186 383 179.06C383 190.934 392.626 200.56 404.5 200.56Z" fill="white"/>
<path d="M443 202.56C449.075 202.56 454 197.635 454 191.56C454 185.485 449.075 180.56 443 180.56C436.925 180.56 432 185.485 432 191.56C432 197.635 436.925 202.56 443 202.56Z" fill="white"/>
<path d="M463.5 180.56C468.747 180.56 473 176.307 473 171.06C473 165.813 468.747 161.56 463.5 161.56C458.253 161.56 454 165.813 454 171.06C454 176.307 458.253 180.56 463.5 180.56Z" fill="white"/>
<path d="M68.5 199.56C80.3741 199.56 90 189.934 90 178.06C90 166.186 80.3741 156.56 68.5 156.56C56.6259 156.56 47 166.186 47 178.06C47 189.934 56.6259 199.56 68.5 199.56Z" fill="white"/>
<path d="M30 201.56C36.0751 201.56 41 196.635 41 190.56C41 184.485 36.0751 179.56 30 179.56C23.9249 179.56 19 184.485 19 190.56C19 196.635 23.9249 201.56 30 201.56Z" fill="white"/>
<path d="M9.5 179.56C14.7467 179.56 19 175.307 19 170.06C19 164.813 14.7467 160.56 9.5 160.56C4.25329 160.56 0 164.813 0 170.06C0 175.307 4.25329 179.56 9.5 179.56Z" fill="white"/>
</svg>
